<svg xmlns="http://www.w3.org/2000/svg" width="48" height="48" viewBox="0 0 48 48" fill="none">
  <rect width="48" height="48" rx="12" fill="url(#gradient)"/>
  <path d="M24 12C18.48 12 14 16.48 14 22V26C14 27.1 14.9 28 16 28H18C18.55 28 19 27.55 19 27V22C19 19.24 21.24 17 24 17C26.76 17 29 19.24 29 22V27C29 27.55 29.45 28 30 28H32C33.1 28 34 27.1 34 26V22C34 16.48 29.52 12 24 12Z" fill="white"/>
  <path d="M24 30C22.34 30 21 31.34 21 33C21 34.66 22.34 36 24 36C25.66 36 27 34.66 27 33C27 31.34 25.66 30 24 30Z" fill="white"/>
  <defs>
    <linearGradient id="gradient" x1="0" y1="0" x2="48" y2="48" gradientUnits="userSpaceOnUse">
      <stop offset="0%" stopColor="#7C6FFF"/>
      <stop offset="100%" stopColor="#FF6B9D"/>
    </linearGradient>
  </defs>
</svg>
